# Blender v2.80 (sub 45) OBJ File: 'teren.blend'
# www.blender.org
mtllib teren.mtl
o Plane
v 0.000000 0.000000 0.000000
v 0.000000 1.000000 10.000000
v 10.000000 0.000000 0.000000
v 10.000000 1.000000 10.000000
v 6.758429 0.000000 0.000000
v 3.425096 0.000000 0.000000
v 3.425096 1.000000 10.000000
v 6.758430 1.000000 10.000000
v 0.000000 0.000000 3.212657
v 10.000000 0.000000 3.212657
v 3.425096 0.000000 3.212657
v 6.758429 0.000000 3.212657
v 0.000000 0.000000 7.801126
v 10.000000 0.000000 7.801126
v 3.425096 0.000000 7.801126
v 6.758430 0.000000 7.801126
v 9.271349 1.000000 2.587906
v 9.271349 1.000000 0.624751
v 6.751618 1.000000 0.624751
v 4.160558 1.000000 0.624751
v 4.160558 1.000000 2.587906
v 6.751618 1.000000 2.587906
v 6.273842 1.000000 0.986744
v 4.638333 1.000000 0.986744
v 4.638333 1.000000 2.225913
v 6.273843 1.000000 2.225913
v 5.962016 2.000000 1.223005
v 4.950161 2.000000 1.223005
v 4.950161 2.000000 1.989652
v 5.962016 2.000000 1.989652
vt 0.512851 0.000000
vt 0.758831 0.172334
vt 0.512851 0.172334
vt 0.000000 0.000000
vt 0.259907 0.172334
vt 0.000000 0.172334
vt 0.259907 0.000000
vt 0.936731 0.629773
vt 0.847781 0.440297
vt 0.936731 0.385356
vt 0.000000 0.516672
vt 0.259907 0.757764
vt 0.000000 0.757764
vt 0.907098 0.000000
vt 1.000000 0.195129
vt 0.907098 0.242236
vt 0.512851 0.516672
vt 0.259907 0.516672
vt 0.758831 0.516672
vt 0.907098 0.189989
vt 0.786171 0.226014
vt 0.758831 0.189989
vt 0.907098 0.000000
vt 0.847781 0.636692
vt 0.758831 0.826167
vt 0.758831 0.636178
vt 0.847781 0.825653
vt 0.847781 0.630286
vt 0.758831 0.440811
vt 0.847781 0.385356
vt 0.000000 1.000000
vt 0.092635 0.804870
vt 0.092635 0.952893
vt 0.244887 0.881082
vt 0.168761 0.781276
vt 0.244887 0.757764
vt 0.907098 0.385356
vt 0.879758 0.226014
vt 0.786171 0.349332
vt 0.758831 0.385356
vt 0.879758 0.349332
vt 0.459607 0.757764
vt 0.401707 0.834058
vt 0.401707 0.757764
vt 0.401707 0.851198
vt 0.323312 0.775578
vt 0.401707 0.757764
vt 0.244887 0.757764
vt 0.323312 0.833384
vt 0.244888 0.851198
vt 0.168761 0.881082
vt 0.092635 0.781276
vt 0.168761 0.757764
vt 0.758831 0.000000
vt 1.000000 0.047107
vt 0.758831 0.000000
vt 0.847781 0.881108
vt 0.936731 0.881108
vt 0.000000 0.757764
vt 0.168761 0.857570
vt 0.459607 0.834058
vt 0.323312 0.833384
vt 0.323312 0.775578
vt 0.092635 0.857570
vn 0.0000 0.9103 -0.4140
vn 0.0000 0.5298 -0.8481
vn 0.0000 1.0000 0.0000
vn -0.8056 0.5925 0.0000
vn 0.0000 0.5298 0.8481
vn 0.8082 0.5889 0.0000
vn 0.0000 0.2299 0.9732
vn -0.9547 0.2977 0.0000
vn 0.9547 0.2977 -0.0000
vn 0.0000 0.2299 -0.9732
usemtl Material.001
s off
f 8/1/1 14/2/1 16/3/1
f 2/4/1 15/5/1 13/6/1
f 7/7/1 16/3/1 15/5/1
f 5/8/2 18/9/2 3/10/2
f 9/11/3 6/12/3 1/13/3
f 11/14/4 20/15/4 6/16/4
f 15/5/3 12/17/3 11/18/3
f 13/6/3 11/18/3 9/11/3
f 16/3/3 10/19/3 12/17/3
f 19/20/3 26/21/3 22/22/3
f 22/22/3 18/23/3 19/20/3
f 12/24/5 17/25/5 22/26/5
f 5/8/2 20/27/2 19/28/2
f 12/24/5 21/29/5 11/30/5
f 10/31/6 18/32/6 17/33/6
f 26/34/7 29/35/7 25/36/7
f 20/37/3 23/38/3 19/20/3
f 22/22/3 25/39/3 21/40/3
f 21/40/3 24/41/3 20/37/3
f 29/42/3 27/43/3 28/44/3
f 25/45/8 28/46/8 24/47/8
f 23/48/9 30/49/9 26/50/9
f 24/51/10 27/52/10 23/53/10
f 8/1/1 4/54/1 14/2/1
f 2/4/1 7/7/1 15/5/1
f 7/7/1 8/1/1 16/3/1
f 5/8/2 19/28/2 18/9/2
f 9/11/3 11/18/3 6/12/3
f 11/14/4 21/55/4 20/15/4
f 15/5/3 16/3/3 12/17/3
f 13/6/3 15/5/3 11/18/3
f 16/3/3 14/2/3 10/19/3
f 19/20/3 23/38/3 26/21/3
f 22/22/3 17/56/3 18/23/3
f 12/24/5 10/57/5 17/25/5
f 5/8/2 6/58/2 20/27/2
f 12/24/5 22/26/5 21/29/5
f 10/31/6 3/59/6 18/32/6
f 26/34/7 30/60/7 29/35/7
f 20/37/3 24/41/3 23/38/3
f 22/22/3 26/21/3 25/39/3
f 21/40/3 25/39/3 24/41/3
f 29/42/3 30/61/3 27/43/3
f 25/45/8 29/62/8 28/46/8
f 23/48/9 27/63/9 30/49/9
f 24/51/10 28/64/10 27/52/10
