# Blender v2.79 (sub 0) OBJ File: 'test.blend'
# www.blender.org
mtllib test.mtl
o Plane
v 4.000000 0.333333 -4.000000
v 6.000000 0.000000 -4.000000
v 4.000000 0.333333 -6.000000
v 6.000000 0.000000 -6.000000
v 4.000000 0.333333 -4.488410
v 6.000000 0.000000 -4.488410
v 6.000000 0.000000 -5.529324
v 4.000000 0.333333 -5.529324
v 5.390218 0.000000 -4.000000
v 5.390218 0.000000 -6.000000
v 5.390218 0.000000 -4.488410
v 5.390218 0.000000 -5.529324
v 6.000000 0.000000 -4.488410
v 6.000000 0.000000 -5.529324
v 5.390218 0.000000 -4.488410
v 5.390218 0.000000 -5.529324
v 5.996361 0.666667 -4.488410
v 5.996361 0.666667 -5.529324
v 5.587426 0.666667 -4.488410
v 5.587426 0.666667 -5.529324
v 4.733301 0.000000 -6.000000
v 4.733301 0.000000 -4.488410
v 4.733301 0.000000 -5.529324
v 4.733301 0.000000 -4.000000
v 5.920075 0.666667 -4.682590
v 5.920075 0.666667 -5.335144
v 5.663712 0.666667 -4.682590
v 5.663712 0.666667 -5.335144
v 5.869511 1.000000 -4.811297
v 5.869511 1.000000 -5.206437
v 5.714276 1.000000 -4.811297
v 5.714276 1.000000 -5.206437
vt 0.988233 0.593003
vt 0.746696 0.749086
vt 0.761415 0.575209
vt 1.010850 0.014953
vt 0.776880 0.193004
vt 0.785023 0.009462
vt 1.009021 0.188460
vt 0.982884 0.588891
vt 1.002349 0.193017
vt 0.385819 0.571723
vt 0.397502 0.195216
vt 0.397894 0.013539
vt 0.379672 0.729591
vt 0.782778 0.197157
vt 0.884642 0.386063
vt 0.772381 0.565221
vt 0.884642 0.385033
vt 0.884642 0.385033
vt 0.883637 0.384923
vt 0.884129 0.383871
vt 0.011025 0.723248
vt 0.013541 0.561347
vt 0.012265 0.193298
vt 0.011025 0.016188
vt 0.884642 0.386063
vt 0.884642 0.385033
vt 0.884129 0.383871
vt 0.883637 0.384923
vt 0.884129 0.383871
vt 0.884642 0.386063
vt 0.883637 0.384923
vt 0.973551 0.768107
vn 0.0000 1.0000 0.0000
vn 0.0000 0.0000 1.0000
vn -0.9589 0.2837 0.0000
vn 0.0000 0.0000 -1.0000
vn 1.0000 0.0055 0.0000
vn 0.4138 0.9104 0.0000
vn 0.0000 0.3602 -0.9329
vn 0.9887 0.1500 0.0000
vn -0.9887 0.1500 0.0000
vn 0.0000 0.3602 0.9329
g Plane_Plane_Material.003
usemtl Material.003
s off
f 7/1/1 10/2/1 12/3/1
f 2/4/1 11/5/1 9/6/1
f 6/7/2 14/8/2 13/9/2
f 11/5/1 23/10/1 22/11/1
f 9/6/1 22/11/1 24/12/1
f 12/3/1 21/13/1 23/10/1
f 15/14/3 20/15/3 16/16/3
f 12/3/2 15/14/2 16/16/2
f 11/5/2 13/9/2 15/14/2
f 7/1/2 16/16/2 14/8/2
f 20/15/1 26/17/1 18/18/1
f 13/9/2 19/19/2 15/14/2
f 14/8/4 20/15/4 18/18/4
f 14/8/5 17/20/5 13/9/5
f 23/10/6 3/21/6 8/22/6
f 24/12/6 5/23/6 1/24/6
f 5/23/6 23/10/6 8/22/6
f 28/25/7 30/26/7 26/17/7
f 18/18/1 25/27/1 17/20/1
f 19/19/1 28/25/1 20/15/1
f 17/20/1 27/28/1 19/19/1
f 29/29/1 32/30/1 31/31/1
f 25/27/8 30/26/8 29/29/8
f 28/25/9 31/31/9 32/30/9
f 25/27/10 31/31/10 27/28/10
f 7/1/1 4/32/1 10/2/1
f 2/4/1 6/7/1 11/5/1
f 6/7/2 7/1/2 14/8/2
f 11/5/1 12/3/1 23/10/1
f 9/6/1 11/5/1 22/11/1
f 12/3/1 10/2/1 21/13/1
f 15/14/3 19/19/3 20/15/3
f 12/3/2 11/5/2 15/14/2
f 11/5/2 6/7/2 13/9/2
f 7/1/2 12/3/2 16/16/2
f 20/15/1 28/25/1 26/17/1
f 13/9/2 17/20/2 19/19/2
f 14/8/4 16/16/4 20/15/4
f 14/8/5 18/18/5 17/20/5
f 23/10/6 21/13/6 3/21/6
f 24/12/6 22/11/6 5/23/6
f 5/23/6 22/11/6 23/10/6
f 28/25/7 32/30/7 30/26/7
f 18/18/1 26/17/1 25/27/1
f 19/19/1 27/28/1 28/25/1
f 17/20/1 25/27/1 27/28/1
f 29/29/1 30/26/1 32/30/1
f 25/27/8 26/17/8 30/26/8
f 28/25/9 27/28/9 31/31/9
f 25/27/10 29/29/10 31/31/10
