# Blender v2.80 (sub 45) OBJ File: ''
# www.blender.org
mtllib char.mtl
o Sphere
v 0.000000 1.856995 -0.440839
v 0.000000 1.250232 -0.750000
v 0.088692 1.963524 -0.214121
v 0.168702 1.856995 -0.407282
v 0.232198 1.691071 -0.560575
v 0.272965 1.481995 -0.658996
v 0.287013 1.250232 -0.692909
v 0.163881 1.963524 -0.163881
v 0.311720 1.856995 -0.311720
v 0.429046 1.691071 -0.429046
v 0.504374 1.481995 -0.504374
v 0.530330 1.250232 -0.530330
v 0.214121 1.963524 -0.088691
v 0.407282 1.856995 -0.168701
v 0.560576 1.691071 -0.232198
v 0.658997 1.481995 -0.272965
v 0.692910 1.250232 -0.287012
v 0.231763 1.963524 0.000000
v 0.440839 1.856995 0.000001
v 0.606763 1.691071 0.000001
v 0.713293 1.481995 0.000001
v 0.750000 1.250232 0.000001
v 0.214121 1.963524 0.088692
v 0.407282 1.856995 0.168702
v 0.560576 1.691071 0.232199
v 0.658997 1.481995 0.272966
v 0.692910 1.250232 0.287013
v 0.163881 1.963524 0.163882
v 0.311720 1.856995 0.311721
v 0.429046 1.691071 0.429047
v 0.504374 1.481995 0.504375
v 0.530330 1.250232 0.530331
v 0.088692 1.963524 0.214122
v 0.168702 1.856995 0.407283
v 0.232198 1.691071 0.560576
v 0.272965 1.481995 0.658997
v 0.287013 1.250232 0.692910
v -0.000000 1.963524 0.231763
v -0.000000 1.856995 0.440840
v -0.000000 1.691071 0.606763
v -0.000000 1.481995 0.713293
v -0.000000 1.250232 0.750001
v -0.088692 1.963524 0.214121
v -0.168702 1.856995 0.407283
v -0.232198 1.691071 0.560576
v -0.272965 1.481995 0.658997
v -0.287013 1.250232 0.692910
v -0.163881 1.963524 0.163882
v -0.311720 1.856995 0.311721
v -0.429046 1.691071 0.429047
v -0.504374 1.481995 0.504374
v -0.530330 1.250232 0.530330
v -0.000000 2.000232 0.000001
v -0.214121 1.963524 0.088692
v -0.407282 1.856995 0.168702
v -0.560576 1.691071 0.232198
v -0.658997 1.481995 0.272966
v -0.692910 1.250232 0.287013
v -0.231763 1.963524 0.000000
v -0.440839 1.856995 0.000000
v -0.606763 1.691071 0.000000
v -0.713293 1.481995 0.000000
v -0.750000 1.250232 0.000000
v -0.214121 1.963524 -0.088691
v -0.407282 1.856995 -0.168702
v -0.560576 1.691071 -0.232198
v -0.658996 1.481995 -0.272965
v -0.692909 1.250232 -0.287012
v -0.163881 1.963524 -0.163881
v -0.311720 1.856995 -0.311720
v -0.429046 1.691071 -0.429046
v -0.504374 1.481995 -0.504374
v -0.530330 1.250232 -0.530330
v -0.088692 1.963524 -0.214121
v -0.168702 1.856995 -0.407282
v -0.232198 1.691071 -0.560575
v -0.272965 1.481995 -0.658996
v -0.287012 1.250232 -0.692909
v 0.000000 1.963524 -0.231762
v 0.000000 1.691071 -0.606762
v 0.000000 1.481995 -0.713292
v 0.000000 0.000232 -0.750000
v 0.287013 0.000232 -0.692909
v 0.530330 0.000232 -0.530330
v 0.692910 0.000232 -0.287012
v 0.750000 0.000232 0.000001
v 0.692910 0.000232 0.287013
v 0.530330 0.000232 0.530331
v 0.287013 0.000232 0.692910
v -0.000000 0.000232 0.750001
v -0.287013 0.000232 0.692910
v -0.530330 0.000232 0.530330
v -0.692910 0.000232 0.287013
v -0.750000 0.000232 0.000000
v -0.692909 0.000232 -0.287012
v -0.530330 0.000232 -0.530330
v -0.287012 0.000232 -0.692909
vt 0.750000 0.800000
vt 0.687500 0.900000
vt 0.687500 0.800000
vt 0.750000 0.700000
vt 0.687500 0.700000
vt 0.750000 0.600000
vt 0.687500 0.600000
vt 0.750000 0.900000
vt 0.718750 1.000000
vt 0.687500 0.500000
vt 0.750000 0.500000
vt 0.625000 0.800000
vt 0.625000 0.700000
vt 0.625000 0.600000
vt 0.656250 1.000000
vt 0.625000 0.900000
vt 0.625000 0.500000
vt 0.562500 0.500000
vt 0.562500 0.800000
vt 0.562500 0.700000
vt 0.562500 0.600000
vt 0.593750 1.000000
vt 0.562500 0.900000
vt 0.531250 1.000000
vt 0.500000 0.900000
vt 0.500000 0.500000
vt 0.500000 0.800000
vt 0.500000 0.700000
vt 0.500000 0.600000
vt 0.437500 0.600000
vt 0.468750 1.000000
vt 0.437500 0.900000
vt 0.437500 0.500000
vt 0.437500 0.800000
vt 0.437500 0.700000
vt 0.375000 0.700000
vt 0.375000 0.600000
vt 0.406250 1.000000
vt 0.375000 0.900000
vt 0.375000 0.500000
vt 0.375000 0.800000
vt 0.312500 0.800000
vt 0.312500 0.700000
vt 0.312500 0.600000
vt 0.343750 1.000000
vt 0.312500 0.900000
vt 0.312500 0.500000
vt 0.250000 0.800000
vt 0.250000 0.700000
vt 0.250000 0.600000
vt 0.281250 1.000000
vt 0.250000 0.900000
vt 0.250000 0.500000
vt 0.187500 0.600000
vt 0.187500 0.500000
vt 0.187500 0.900000
vt 0.187500 0.800000
vt 0.187500 0.700000
vt 0.218750 1.000000
vt 0.125000 0.600000
vt 0.156250 1.000000
vt 0.125000 0.900000
vt 0.125000 0.500000
vt 0.125000 0.800000
vt 0.125000 0.700000
vt 0.062500 0.700000
vt 0.062500 0.600000
vt 0.093750 1.000000
vt 0.062500 0.900000
vt 0.062500 0.500000
vt 0.062500 0.800000
vt 0.000000 0.700000
vt 0.000000 0.600000
vt 0.031250 1.000000
vt 0.000000 0.900000
vt 0.000000 0.500000
vt 0.000000 0.800000
vt 1.000000 0.800000
vt 0.937500 0.700000
vt 1.000000 0.700000
vt 0.937500 0.600000
vt 1.000000 0.600000
vt 1.000000 0.900000
vt 0.968750 1.000000
vt 0.937500 0.900000
vt 0.937500 0.500000
vt 1.000000 0.500000
vt 0.937500 0.800000
vt 0.875000 0.500000
vt 0.875000 0.800000
vt 0.875000 0.700000
vt 0.875000 0.600000
vt 0.906250 1.000000
vt 0.875000 0.900000
vt 0.843750 1.000000
vt 0.812500 0.900000
vt 0.812500 0.500000
vt 0.812500 0.800000
vt 0.812500 0.700000
vt 0.812500 0.600000
vt 0.781250 1.000000
vt 0.187500 0.500000
vt 0.625000 0.500000
vt 0.687500 0.500000
vt 0.750000 0.500000
vt 0.437500 0.500000
vt 0.125000 0.500000
vt 0.250000 0.500000
vt 1.000000 0.500000
vt 0.562500 0.500000
vt 0.312500 0.500000
vt 0.937500 0.500000
vt 0.062500 0.500000
vt 0.812500 0.500000
vt 0.500000 0.500000
vt 0.875000 0.500000
vt 0.375000 0.500000
vt 0.000000 0.500000
vn 0.0899 0.8874 -0.4522
vn 0.1393 0.7002 -0.7002
vn 0.1745 0.4470 -0.8773
vn 0.0311 0.9872 -0.1564
vn 0.1928 0.1535 -0.9692
vn 0.2561 0.8874 -0.3833
vn 0.3966 0.7002 -0.5936
vn 0.4970 0.4470 -0.7438
vn 0.0886 0.9872 -0.1326
vn 0.5490 0.1535 -0.8216
vn 0.8216 0.1535 -0.5490
vn 0.3833 0.8874 -0.2561
vn 0.5936 0.7002 -0.3966
vn 0.7438 0.4470 -0.4970
vn 0.1326 0.9872 -0.0886
vn 0.1564 0.9872 -0.0311
vn 0.9692 0.1535 -0.1928
vn 0.4522 0.8874 -0.0899
vn 0.7002 0.7002 -0.1393
vn 0.8773 0.4470 -0.1745
vn 0.8773 0.4470 0.1745
vn 0.1564 0.9872 0.0311
vn 0.9692 0.1535 0.1928
vn 0.4522 0.8874 0.0899
vn 0.7002 0.7002 0.1393
vn 0.5936 0.7002 0.3966
vn 0.7438 0.4470 0.4970
vn 0.1326 0.9872 0.0886
vn 0.8216 0.1535 0.5490
vn 0.3833 0.8874 0.2561
vn 0.3966 0.7002 0.5936
vn 0.4970 0.4470 0.7438
vn 0.0886 0.9872 0.1326
vn 0.5490 0.1535 0.8216
vn 0.2561 0.8874 0.3833
vn 0.0899 0.8874 0.4522
vn 0.1393 0.7002 0.7002
vn 0.1745 0.4470 0.8773
vn 0.0311 0.9872 0.1564
vn 0.1928 0.1535 0.9692
vn -0.1928 0.1535 0.9692
vn -0.0899 0.8874 0.4522
vn -0.1393 0.7002 0.7002
vn -0.1745 0.4470 0.8773
vn -0.0311 0.9872 0.1564
vn -0.4970 0.4470 0.7438
vn -0.0886 0.9872 0.1326
vn -0.5490 0.1535 0.8216
vn -0.2561 0.8874 0.3833
vn -0.3966 0.7002 0.5936
vn -0.7438 0.4470 0.4970
vn -0.1326 0.9872 0.0886
vn -0.8216 0.1535 0.5490
vn -0.3833 0.8874 0.2561
vn -0.5936 0.7002 0.3966
vn -0.7002 0.7002 0.1393
vn -0.8773 0.4470 0.1745
vn -0.1564 0.9872 0.0311
vn -0.9692 0.1535 0.1928
vn -0.4522 0.8874 0.0899
vn -0.7002 0.7002 -0.1393
vn -0.8773 0.4470 -0.1745
vn -0.1564 0.9872 -0.0311
vn -0.9692 0.1535 -0.1928
vn -0.4522 0.8874 -0.0899
vn -0.8216 0.1535 -0.5490
vn -0.3833 0.8874 -0.2561
vn -0.5936 0.7002 -0.3966
vn -0.7438 0.4470 -0.4970
vn -0.1326 0.9872 -0.0886
vn -0.0886 0.9872 -0.1326
vn -0.5490 0.1535 -0.8216
vn -0.2561 0.8874 -0.3833
vn -0.3966 0.7002 -0.5936
vn -0.4970 0.4470 -0.7438
vn -0.1745 0.4470 -0.8773
vn -0.0311 0.9872 -0.1564
vn -0.1928 0.1535 -0.9692
vn -0.0899 0.8874 -0.4522
vn -0.1393 0.7002 -0.7002
vn -0.5556 0.0000 0.8315
vn 0.8315 0.0000 -0.5556
vn 0.5556 0.0000 -0.8315
vn 0.1951 0.0000 -0.9808
vn 0.8315 0.0000 0.5556
vn -0.8315 0.0000 0.5556
vn -0.1951 0.0000 0.9808
vn -0.9808 0.0000 -0.1951
vn 0.9808 0.0000 -0.1951
vn 0.1951 0.0000 0.9808
vn -0.8315 0.0000 -0.5556
vn -0.9808 0.0000 0.1951
vn -0.1951 0.0000 -0.9808
vn 0.9808 0.0000 0.1951
vn -0.5556 0.0000 -0.8315
vn 0.5556 0.0000 0.8315
vn 0.0899 0.8874 -0.4521
vn 0.0899 0.8874 0.4521
vn -0.0899 0.8874 0.4521
vn -0.0899 0.8874 -0.4521
usemtl Material.001
s off
f 1/1/1 3/2/1 4/3/1
f 80/4/2 4/3/2 5/5/2
f 81/6/3 5/5/3 6/7/3
f 79/8/4 53/9/4 3/2/4
f 81/6/5 7/10/5 2/11/5
f 3/2/6 9/12/6 4/3/6
f 4/3/7 10/13/7 5/5/7
f 5/5/8 11/14/8 6/7/8
f 3/2/9 53/15/9 8/16/9
f 6/7/10 12/17/10 7/10/10
f 11/14/11 17/18/11 12/17/11
f 8/16/12 14/19/12 9/12/12
f 10/13/13 14/19/13 15/20/13
f 10/13/14 16/21/14 11/14/14
f 8/16/15 53/22/15 13/23/15
f 13/23/16 53/24/16 18/25/16
f 16/21/17 22/26/17 17/18/17
f 13/23/18 19/27/18 14/19/18
f 15/20/19 19/27/19 20/28/19
f 15/20/20 21/29/20 16/21/20
f 20/28/21 26/30/21 21/29/21
f 18/25/22 53/31/22 23/32/22
f 21/29/23 27/33/23 22/26/23
f 19/27/24 23/32/24 24/34/24
f 20/28/25 24/34/25 25/35/25
f 24/34/26 30/36/26 25/35/26
f 25/35/27 31/37/27 26/30/27
f 23/32/28 53/38/28 28/39/28
f 27/33/29 31/37/29 32/40/29
f 24/34/30 28/39/30 29/41/30
f 30/36/31 34/42/31 35/43/31
f 30/36/32 36/44/32 31/37/32
f 28/39/33 53/45/33 33/46/33
f 32/40/34 36/44/34 37/47/34
f 29/41/35 33/46/35 34/42/35
f 33/46/36 39/48/36 34/42/36
f 35/43/37 39/48/37 40/49/37
f 36/44/38 40/49/38 41/50/38
f 33/46/39 53/51/39 38/52/39
f 37/47/40 41/50/40 42/53/40
f 42/53/41 46/54/41 47/55/41
f 39/48/42 43/56/42 44/57/42
f 39/48/43 45/58/43 40/49/43
f 40/49/44 46/54/44 41/50/44
f 38/52/45 53/59/45 43/56/45
f 45/58/46 51/60/46 46/54/46
f 43/56/47 53/61/47 48/62/47
f 46/54/48 52/63/48 47/55/48
f 43/56/49 49/64/49 44/57/49
f 44/57/50 50/65/50 45/58/50
f 51/60/51 56/66/51 57/67/51
f 48/62/52 53/68/52 54/69/52
f 51/60/53 58/70/53 52/63/53
f 48/62/54 55/71/54 49/64/54
f 49/64/55 56/66/55 50/65/55
f 55/71/56 61/72/56 56/66/56
f 56/66/57 62/73/57 57/67/57
f 54/69/58 53/74/58 59/75/58
f 57/67/59 63/76/59 58/70/59
f 55/71/60 59/75/60 60/77/60
f 60/78/61 66/79/61 61/80/61
f 61/80/62 67/81/62 62/82/62
f 59/83/63 53/84/63 64/85/63
f 62/82/64 68/86/64 63/87/64
f 60/78/65 64/85/65 65/88/65
f 67/81/66 73/89/66 68/86/66
f 64/85/67 70/90/67 65/88/67
f 65/88/68 71/91/68 66/79/68
f 67/81/69 71/91/69 72/92/69
f 64/85/70 53/93/70 69/94/70
f 69/94/71 53/95/71 74/96/71
f 72/92/72 78/97/72 73/89/72
f 69/94/73 75/98/73 70/90/73
f 71/91/74 75/98/74 76/99/74
f 72/92/75 76/99/75 77/100/75
f 77/100/76 80/4/76 81/6/76
f 74/96/77 53/101/77 79/8/77
f 77/100/78 2/11/78 78/97/78
f 74/96/79 1/1/79 75/98/79
f 76/99/80 1/1/80 80/4/80
f 52/63/81 91/102/81 47/55/81
f 17/18/82 84/103/82 12/17/82
f 12/17/83 83/104/83 7/10/83
f 7/10/84 82/105/84 2/11/84
f 32/40/85 87/106/85 27/33/85
f 58/70/86 92/107/86 52/63/86
f 47/55/87 90/108/87 42/53/87
f 68/86/88 94/109/88 63/87/88
f 22/26/89 85/110/89 17/18/89
f 42/53/90 89/111/90 37/47/90
f 73/89/91 95/112/91 68/86/91
f 63/76/92 93/113/92 58/70/92
f 2/11/93 97/114/93 78/97/93
f 27/33/94 86/115/94 22/26/94
f 78/97/95 96/116/95 73/89/95
f 37/47/96 88/117/96 32/40/96
f 1/1/97 79/8/97 3/2/97
f 80/4/2 1/1/2 4/3/2
f 81/6/3 80/4/3 5/5/3
f 81/6/5 6/7/5 7/10/5
f 3/2/6 8/16/6 9/12/6
f 4/3/7 9/12/7 10/13/7
f 5/5/8 10/13/8 11/14/8
f 6/7/10 11/14/10 12/17/10
f 11/14/11 16/21/11 17/18/11
f 8/16/12 13/23/12 14/19/12
f 10/13/13 9/12/13 14/19/13
f 10/13/14 15/20/14 16/21/14
f 16/21/17 21/29/17 22/26/17
f 13/23/18 18/25/18 19/27/18
f 15/20/19 14/19/19 19/27/19
f 15/20/20 20/28/20 21/29/20
f 20/28/21 25/35/21 26/30/21
f 21/29/23 26/30/23 27/33/23
f 19/27/24 18/25/24 23/32/24
f 20/28/25 19/27/25 24/34/25
f 24/34/26 29/41/26 30/36/26
f 25/35/27 30/36/27 31/37/27
f 27/33/29 26/30/29 31/37/29
f 24/34/30 23/32/30 28/39/30
f 30/36/31 29/41/31 34/42/31
f 30/36/32 35/43/32 36/44/32
f 32/40/34 31/37/34 36/44/34
f 29/41/35 28/39/35 33/46/35
f 33/46/98 38/52/98 39/48/98
f 35/43/37 34/42/37 39/48/37
f 36/44/38 35/43/38 40/49/38
f 37/47/40 36/44/40 41/50/40
f 42/53/41 41/50/41 46/54/41
f 39/48/99 38/52/99 43/56/99
f 39/48/43 44/57/43 45/58/43
f 40/49/44 45/58/44 46/54/44
f 45/58/46 50/65/46 51/60/46
f 46/54/48 51/60/48 52/63/48
f 43/56/49 48/62/49 49/64/49
f 44/57/50 49/64/50 50/65/50
f 51/60/51 50/65/51 56/66/51
f 51/60/53 57/67/53 58/70/53
f 48/62/54 54/69/54 55/71/54
f 49/64/55 55/71/55 56/66/55
f 55/71/56 60/77/56 61/72/56
f 56/66/57 61/72/57 62/73/57
f 57/67/59 62/73/59 63/76/59
f 55/71/60 54/69/60 59/75/60
f 60/78/61 65/88/61 66/79/61
f 61/80/62 66/79/62 67/81/62
f 62/82/64 67/81/64 68/86/64
f 60/78/65 59/83/65 64/85/65
f 67/81/66 72/92/66 73/89/66
f 64/85/67 69/94/67 70/90/67
f 65/88/68 70/90/68 71/91/68
f 67/81/69 66/79/69 71/91/69
f 72/92/72 77/100/72 78/97/72
f 69/94/73 74/96/73 75/98/73
f 71/91/74 70/90/74 75/98/74
f 72/92/75 71/91/75 76/99/75
f 77/100/76 76/99/76 80/4/76
f 77/100/78 81/6/78 2/11/78
f 74/96/100 79/8/100 1/1/100
f 76/99/80 75/98/80 1/1/80
f 52/63/81 92/107/81 91/102/81
f 17/18/82 85/110/82 84/103/82
f 12/17/83 84/103/83 83/104/83
f 7/10/84 83/104/84 82/105/84
f 32/40/85 88/117/85 87/106/85
f 58/70/86 93/113/86 92/107/86
f 47/55/87 91/102/87 90/108/87
f 68/86/88 95/112/88 94/109/88
f 22/26/89 86/115/89 85/110/89
f 42/53/90 90/108/90 89/111/90
f 73/89/91 96/116/91 95/112/91
f 63/76/92 94/118/92 93/113/92
f 2/11/93 82/105/93 97/114/93
f 27/33/94 87/106/94 86/115/94
f 78/97/95 97/114/95 96/116/95
f 37/47/96 89/111/96 88/117/96
