# Blender v2.80 (sub 45) OBJ File: 'teren.blend'
# www.blender.org
mtllib teren.mtl
o Plane
v 0.000000 0.000000 0.000000
v 0.000000 0.000000 50.000000
v 50.000000 0.000000 0.000000
v 50.000000 0.000000 50.000000
v 0.000000 0.000000 17.500000
v 50.000000 0.000000 17.500000
v 0.000000 0.000000 32.750000
v 50.000000 0.000000 32.750000
v 9.403206 0.000000 0.000000
v 9.403206 0.000000 50.000000
v 9.403206 0.000000 17.500000
v 9.403206 0.000000 32.750000
v 40.252831 0.000000 50.000000
v 40.252831 0.000000 17.500000
v 40.252831 0.000000 32.750000
v 40.252831 0.000000 0.000000
v 9.403206 0.000000 32.750000
v 9.403206 0.000000 17.500000
v 40.252831 0.000000 17.500000
v 40.252831 0.000000 32.750000
v 9.403206 3.000000 32.750000
v 9.403206 3.000000 17.500000
v 40.252831 3.000000 17.500000
v 40.252831 3.000000 32.750000
v 50.000000 0.000000 25.125000
v 0.000000 0.000000 25.125000
v 9.403206 0.000000 25.125000
v 40.252831 0.000000 25.125000
v 9.403206 0.000000 25.125000
v 40.252831 0.000000 25.125000
v 9.403206 3.000000 25.125000
v 40.252831 3.000000 25.125000
v 50.000000 3.000000 25.125000
v 50.000000 0.000000 17.500000
v 40.252831 0.000000 17.500000
v 0.000000 3.000000 25.125000
v 0.000000 0.000000 32.750000
v 40.252831 3.000000 32.750000
v 50.000000 3.000000 32.750000
v 0.000000 3.000000 17.500000
v 9.403206 3.000000 17.500000
v 9.403206 0.000000 32.750000
v 9.403206 3.000000 25.125000
v 40.252831 3.000000 25.125000
v 9.403206 3.000000 32.750000
v 40.252831 3.000000 32.750000
v 9.403206 3.000000 25.125000
v 40.252831 3.000000 25.125000
v 40.252831 0.000000 50.000000
v 50.000000 0.000000 50.000000
v 50.000000 3.000000 32.750000
v 40.252831 3.000000 32.750000
v 9.403206 0.000000 0.000000
v 0.000000 0.000000 0.000000
v 0.000000 3.000000 17.500000
v 9.403206 3.000000 17.500000
v 0.000000 3.000000 25.125000
v 0.000000 0.000000 32.750000
v 9.403206 0.000000 32.750000
v 9.403206 3.000000 25.125000
v 9.403206 0.000000 32.750000
v 0.000000 7.000000 50.000000
v 50.000000 7.000000 0.000000
v 50.000000 7.000000 50.000000
v 50.000000 7.000000 17.500000
v 50.000000 7.000000 32.750000
v 9.403206 7.000000 50.000000
v 40.252831 7.000000 50.000000
v 50.000000 7.000000 25.125000
v 0.000000 7.000000 0.000000
v 0.000000 7.000000 50.000000
v 50.000000 7.000000 0.000000
v 0.000000 7.000000 17.500000
v 0.000000 7.000000 32.750000
v 9.403206 7.000000 0.000000
v 40.252831 7.000000 0.000000
v 0.000000 7.000000 25.125000
v 0.000000 7.000000 32.750000
v 9.403206 7.000000 0.000000
v 0.000000 7.000000 0.000000
v 0.000000 0.000000 50.000000
v 0.000000 0.000000 32.750000
v 0.000000 0.000000 32.750000
v 0.000000 7.000000 50.000000
v 50.000000 7.000000 0.000000
v 50.000000 7.000000 50.000000
v 50.000000 7.000000 17.500000
v 50.000000 7.000000 32.750000
v 9.403206 7.000000 50.000000
v 40.252831 7.000000 50.000000
v 50.000000 7.000000 25.125000
v 0.000000 7.000000 0.000000
v 50.000000 7.000000 0.000000
v 0.000000 7.000000 17.500000
v 9.403206 7.000000 0.000000
v 40.252831 7.000000 0.000000
v 0.000000 7.000000 25.125000
v 0.000000 7.000000 32.750000
v 9.403206 7.000000 0.000000
v 0.000000 7.000000 0.000000
v 0.000000 0.000000 32.750000
v 50.000000 0.000000 32.750000
v 9.403206 0.000000 32.750000
v 40.252831 0.000000 32.750000
v 50.000000 7.000000 32.750000
v 0.000000 9.000000 50.000000
v 0.000000 9.000000 32.750000
v 0.000000 0.000000 32.750000
v 0.000000 9.000000 50.000000
v 50.000000 9.000000 0.000000
v 50.000000 9.000000 50.000000
v 50.000000 9.000000 17.500000
v 50.000000 9.000000 32.750000
v 9.403206 9.000000 50.000000
v 40.252831 9.000000 50.000000
v 50.000000 9.000000 25.125000
v 0.000000 9.000000 0.000000
v 50.000000 9.000000 0.000000
v 0.000000 9.000000 17.500000
v 9.403206 9.000000 0.000000
v 40.252831 9.000000 0.000000
v 0.000000 9.000000 25.125000
v 0.000000 9.000000 32.750000
v 9.403206 9.000000 0.000000
v 0.000000 9.000000 0.000000
vt 0.000000 0.000000
vt 0.000000 0.000000
vt 0.000000 0.000000
vt 0.000000 0.000000
vt 0.000000 0.000000
vt 0.000000 0.000000
vt 0.000000 0.000000
vt 0.000000 0.000000
vt 0.000000 0.000000
vt 0.000000 0.000000
vt 0.000000 0.000000
vt 0.000000 0.000000
vt 0.000000 0.000000
vt 0.000000 0.000000
vt 0.000000 0.000000
vt 0.000000 0.000000
vt 0.000000 0.000000
vt 0.867371 0.972565
vt 0.662312 0.910250
vt 0.864214 0.968151
vt 0.306191 0.728167
vt 0.043699 0.898814
vt 0.040564 0.773234
vt 0.433582 0.999903
vt 0.297228 0.900764
vt 0.446733 0.922713
vt 0.236934 0.102543
vt 0.348640 0.263122
vt 0.304541 0.321399
vt 0.000097 0.163225
vt 0.208761 0.155032
vt 0.004102 0.166237
vt 0.948361 0.085796
vt 0.640492 0.287100
vt 0.619589 0.092907
vt 0.309846 0.324309
vt 0.308470 0.726265
vt 0.024128 0.314390
vt 0.948361 0.268292
vt 0.634661 0.737809
vt 0.427973 0.728178
vt 0.428428 0.727202
vt 0.454442 0.000097
vt 0.321924 0.135956
vt 0.521139 0.382479
vt 0.422652 0.681581
vt 0.441747 0.354156
vt 0.553834 0.353163
vt 0.445653 0.307117
vt 0.343929 0.678401
vt 0.510917 0.661144
vt 0.546618 0.685938
vt 0.351013 0.358812
vt 0.587889 0.731580
vt 0.564927 0.910204
vt 0.612382 0.952164
vt 0.591521 0.733088
vt 0.459562 0.775267
vt 0.459709 0.773650
vt 0.460135 0.091855
vt 0.309517 0.731069
vt 0.635986 0.287301
vt 0.616463 0.094931
vt 0.294739 0.902173
vt 0.481111 0.263014
vt 0.445052 0.305657
vt 0.481205 0.265009
vt 0.887832 0.810246
vt 0.686614 0.798774
vt 0.891217 0.807719
vt 0.026383 0.311750
vt 0.224321 0.272850
vt 0.635986 0.287301
vt 0.616463 0.094931
vt 0.612382 0.952164
vt 0.891217 0.807719
vt 0.867371 0.972565
vt 0.948361 0.268292
vt 0.433582 0.999903
vt 0.294739 0.902173
vt 0.043699 0.898814
vt 0.454442 0.000097
vt 0.236934 0.102543
vt 0.040564 0.773234
vt 0.026383 0.311750
vt 0.948361 0.085796
vt 0.024128 0.314390
vt 0.004102 0.166237
vt 0.026383 0.311750
vt 0.891217 0.807719
vt 0.867371 0.972565
vt 0.294739 0.902173
vt 0.043699 0.898814
vt 0.948361 0.085796
vt 0.619589 0.092907
vt 0.000097 0.163225
vt 0.236934 0.102543
vt 0.433582 0.999903
vt 0.616463 0.094931
vt 0.612382 0.952164
vt 0.040564 0.773234
vt 0.024128 0.314390
vt 0.948361 0.085796
vt 0.948361 0.085796
vt 0.948361 0.268292
vt 0.043699 0.898814
vt 0.454442 0.000097
vt 0.043699 0.898814
vt 0.612382 0.952164
vt 0.612382 0.952164
vt 0.294739 0.902173
vt 0.619589 0.092907
vt 0.948361 0.085796
vt 0.024128 0.314390
vt 0.612382 0.952164
vt 0.040564 0.773234
vt 0.634661 0.737809
vt 0.948361 0.268292
vt 0.454442 0.000097
vt 0.891217 0.807719
vt 0.026383 0.311750
vt 0.433582 0.999903
vt 0.619589 0.092907
vt 0.619589 0.092907
vt 0.640492 0.287100
vt 0.867371 0.972565
vt 0.236934 0.102543
vt 0.594159 0.320217
vt 0.000097 0.163225
vt 0.043699 0.898814
vt 0.004102 0.166237
vt 0.619589 0.092907
vt 0.043699 0.898814
vt 0.948361 0.085796
vt 0.004102 0.166237
vt 0.000097 0.163225
vn 0.0000 0.0000 1.0000
vn -1.0000 0.0000 0.0000
vn 0.0000 0.0000 -1.0000
vn 1.0000 0.0000 0.0000
vn 0.0000 0.9306 0.3661
vn 0.0000 1.0000 0.0000
vn 0.0000 0.9306 -0.3661
vn 0.0000 0.9852 0.1713
vn 0.0000 0.9856 -0.1690
usemtl Material
s off
f 61/1/1 59/2/1 60/3/1
f 42/4/1 59/2/1 61/1/1
f 26/5/2 58/6/2 57/7/2
f 26/5/3 60/3/3 29/8/3
f 26/5/4 78/9/4 37/10/4
f 78/9/1 97/11/1 98/12/1
f 37/10/1 98/12/1 83/13/1
f 97/11/4 123/14/4 98/12/4
f 60/3/5 57/7/5 61/1/5
f 57/7/5 58/6/5 61/1/5
f 42/4/1 17/15/1 59/2/1
f 26/5/1 37/10/1 58/6/1
f 26/5/3 57/7/3 60/3/3
f 26/5/4 77/16/4 78/9/4
f 78/9/1 77/16/1 97/11/1
f 37/10/1 78/9/1 98/12/1
f 97/11/4 122/17/4 123/14/4
f 4/18/1 51/19/1 50/20/1
f 14/21/6 3/22/6 16/23/6
f 25/24/4 34/25/4 33/26/4
f 5/27/3 41/28/3 11/29/3
f 1/30/1 55/31/1 54/32/1
f 2/33/6 12/34/6 7/35/6
f 14/21/1 18/36/1 19/37/1
f 11/29/6 16/23/6 9/38/6
f 10/39/6 15/40/6 12/34/6
f 28/41/1 19/37/1 30/42/1
f 26/43/2 40/44/2 5/27/2
f 21/45/6 32/46/6 31/47/6
f 17/48/2 31/47/2 29/49/2
f 19/37/4 32/46/4 30/42/4
f 18/36/3 23/50/3 19/37/3
f 30/42/4 24/51/4 20/52/4
f 29/49/2 22/53/2 18/36/2
f 31/47/6 23/50/6 22/53/6
f 46/54/1 17/48/1 20/52/1
f 11/29/1 29/49/1 18/36/1
f 25/24/4 39/55/4 8/56/4
f 8/56/1 38/57/1 15/40/1
f 38/57/6 33/26/6 44/58/6
f 38/57/1 48/59/1 46/54/1
f 36/60/6 41/28/6 40/44/6
f 44/58/7 34/25/7 35/61/7
f 7/35/1 42/62/1 37/63/1
f 6/64/1 35/61/1 34/25/1
f 14/21/1 44/58/1 35/61/1
f 28/41/1 48/59/1 44/58/1
f 11/29/4 43/65/4 27/66/4
f 29/49/1 43/65/1 47/67/1
f 20/52/2 48/59/2 30/42/2
f 49/68/8 51/19/8 52/69/8
f 13/70/1 50/20/1 49/68/1
f 15/40/3 51/19/3 8/56/3
f 15/40/2 49/68/2 52/69/2
f 55/31/9 53/71/9 54/32/9
f 11/29/4 53/71/4 56/72/4
f 9/38/1 54/32/1 53/71/1
f 11/29/1 55/31/1 5/27/1
f 26/43/1 47/67/1 36/60/1
f 37/63/1 61/73/1 58/74/1
f 4/18/2 66/75/2 8/56/2
f 10/39/3 68/76/3 13/70/3
f 13/70/3 64/77/3 4/18/3
f 2/33/3 67/78/3 10/39/3
f 8/56/2 69/79/2 25/24/2
f 25/24/2 65/80/2 6/64/2
f 6/64/2 63/81/2 3/22/2
f 5/27/4 77/82/4 26/43/4
f 1/30/4 73/83/4 5/27/4
f 3/22/1 76/84/1 16/23/1
f 54/32/3 79/85/3 53/71/3
f 7/35/4 71/86/4 2/33/4
f 16/23/1 75/87/1 9/38/1
f 79/85/1 100/88/1 99/89/1
f 64/77/1 90/90/1 86/91/1
f 63/81/1 87/92/1 85/93/1
f 7/35/1 81/94/1 82/95/1
f 73/83/1 92/96/1 94/97/1
f 65/80/1 91/98/1 87/92/1
f 7/35/1 83/99/1 82/95/1
f 66/75/1 86/91/1 88/100/1
f 75/87/1 96/101/1 95/102/1
f 62/103/1 81/94/1 84/104/1
f 67/78/1 84/104/1 89/105/1
f 76/84/1 93/106/1 96/101/1
f 68/76/1 89/105/1 90/90/1
f 77/82/1 94/97/1 97/107/1
f 69/79/1 88/100/1 91/98/1
f 87/92/2 110/108/2 85/93/2
f 66/75/1 102/109/1 105/110/1
f 91/98/2 112/111/2 87/92/2
f 74/112/4 106/113/4 71/86/4
f 96/101/1 120/114/1 95/102/1
f 86/91/2 113/115/2 88/100/2
f 93/106/1 121/116/1 96/101/1
f 15/40/1 102/109/1 104/117/1
f 84/104/3 114/118/3 89/105/3
f 94/97/4 122/119/4 97/107/4
f 89/105/3 115/120/3 90/90/3
f 100/88/3 124/121/3 99/89/3
f 88/100/2 116/122/2 91/98/2
f 7/35/1 108/123/1 101/124/1
f 12/34/1 104/117/1 103/125/1
f 88/100/1 105/110/1 113/115/1
f 90/90/3 111/126/3 86/91/3
f 12/34/1 101/124/1 103/125/1
f 92/96/4 119/127/4 94/97/4
f 4/18/4 8/56/4 51/19/4
f 14/21/6 6/64/6 3/22/6
f 25/24/1 6/64/1 34/25/1
f 5/27/3 40/44/3 41/28/3
f 1/30/2 5/27/2 55/31/2
f 2/33/6 10/39/6 12/34/6
f 14/21/1 11/29/1 18/36/1
f 11/29/6 14/21/6 16/23/6
f 10/39/6 13/70/6 15/40/6
f 28/41/1 14/21/1 19/37/1
f 26/43/2 36/60/2 40/44/2
f 21/45/6 24/51/6 32/46/6
f 17/48/2 21/45/2 31/47/2
f 19/37/4 23/50/4 32/46/4
f 18/36/3 22/53/3 23/50/3
f 30/42/4 32/46/4 24/51/4
f 29/49/2 31/47/2 22/53/2
f 31/47/6 32/46/6 23/50/6
f 46/54/1 45/128/1 17/48/1
f 11/29/1 27/66/1 29/49/1
f 25/24/4 33/26/4 39/55/4
f 8/56/1 39/55/1 38/57/1
f 38/57/6 39/55/6 33/26/6
f 38/57/1 44/58/1 48/59/1
f 36/60/6 43/65/6 41/28/6
f 44/58/7 33/26/7 34/25/7
f 7/35/1 12/34/1 42/62/1
f 6/64/1 14/21/1 35/61/1
f 14/21/2 28/41/2 44/58/2
f 28/41/1 30/42/1 48/59/1
f 11/29/4 41/28/4 43/65/4
f 29/49/1 27/66/1 43/65/1
f 20/52/2 46/54/2 48/59/2
f 49/68/8 50/20/8 51/19/8
f 13/70/1 4/18/1 50/20/1
f 15/40/3 52/69/3 51/19/3
f 15/40/1 13/70/1 49/68/1
f 55/31/9 56/72/9 53/71/9
f 11/29/1 9/38/1 53/71/1
f 9/38/1 1/30/1 54/32/1
f 11/29/1 56/72/1 55/31/1
f 26/43/1 27/66/1 29/49/1
f 47/67/1 43/65/1 36/60/1
f 26/43/1 29/49/1 47/67/1
f 37/63/1 42/62/1 61/73/1
f 4/18/2 64/77/2 66/75/2
f 10/39/3 67/78/3 68/76/3
f 13/70/3 68/76/3 64/77/3
f 2/33/3 62/103/3 67/78/3
f 8/56/2 66/75/2 69/79/2
f 25/24/2 69/79/2 65/80/2
f 6/64/2 65/80/2 63/81/2
f 5/27/4 73/83/4 77/82/4
f 1/30/4 70/129/4 73/83/4
f 3/22/1 72/130/1 76/84/1
f 54/32/3 80/131/3 79/85/3
f 7/35/4 74/112/4 71/86/4
f 16/23/1 76/84/1 75/87/1
f 79/85/1 80/131/1 100/88/1
f 64/77/1 68/76/1 90/90/1
f 63/81/1 65/80/1 87/92/1
f 7/35/1 2/33/1 81/94/1
f 73/83/1 70/129/1 92/96/1
f 65/80/1 69/79/1 91/98/1
f 7/35/1 37/63/1 83/99/1
f 66/75/1 64/77/1 86/91/1
f 75/87/1 76/84/1 96/101/1
f 62/103/1 2/33/1 81/94/1
f 67/78/1 62/103/1 84/104/1
f 76/84/1 72/130/1 93/106/1
f 68/76/1 67/78/1 89/105/1
f 77/82/1 73/83/1 94/97/1
f 69/79/1 66/75/1 88/100/1
f 87/92/2 112/111/2 110/108/2
f 66/75/1 8/56/1 102/109/1
f 91/98/2 116/122/2 112/111/2
f 74/112/4 107/132/4 106/113/4
f 96/101/1 121/116/1 120/114/1
f 86/91/2 111/126/2 113/115/2
f 93/106/1 118/133/1 121/116/1
f 15/40/1 8/56/1 102/109/1
f 84/104/3 109/134/3 114/118/3
f 94/97/4 119/127/4 122/119/4
f 89/105/3 114/118/3 115/120/3
f 100/88/3 125/135/3 124/121/3
f 88/100/2 113/115/2 116/122/2
f 7/35/1 82/95/1 108/123/1
f 12/34/1 15/40/1 104/117/1
f 88/100/1 66/75/1 105/110/1
f 90/90/3 115/120/3 111/126/3
f 12/34/1 7/35/1 101/124/1
f 92/96/4 117/136/4 119/127/4
